<svg width="22" height="28" viewBox="0 0 22 28" fill="none" xmlns="http://www.w3.org/2000/svg">
<path d="M10.9998 16.6667C13.9411 16.6667 16.3331 14.2747 16.3331 11.3333C16.3331 8.39199 13.9411 5.99999 10.9998 5.99999C8.05842 5.99999 5.66642 8.39199 5.66642 11.3333C5.66642 14.2747 8.05842 16.6667 10.9998 16.6667ZM10.9998 8.66666C12.4704 8.66666 13.6664 9.86266 13.6664 11.3333C13.6664 12.804 12.4704 14 10.9998 14C9.52909 14 8.33309 12.804 8.33309 11.3333C8.33309 9.86266 9.52909 8.66666 10.9998 8.66666Z" fill="#086FB4"/>
<path d="M10.2265 27.0853C10.4521 27.2465 10.7225 27.3331 10.9998 27.3331C11.2771 27.3331 11.5475 27.2465 11.7731 27.0853C12.1785 26.7987 21.7051 19.92 21.6665 11.3333C21.6665 5.45199 16.8811 0.666656 10.9998 0.666656C5.11846 0.666656 0.333125 5.45199 0.333125 11.3267C0.294459 19.92 9.82113 26.7987 10.2265 27.0853ZM10.9998 3.33332C15.4118 3.33332 18.9998 6.92132 18.9998 11.34C19.0278 17.2573 13.1491 22.5707 10.9998 24.3133C8.85179 22.5693 2.97179 17.2547 2.99979 11.3333C2.99979 6.92132 6.58779 3.33332 10.9998 3.33332Z" fill="#086FB4"/>
</svg>
