<svg width="28" height="22" viewBox="0 0 28 22" fill="none" xmlns="http://www.w3.org/2000/svg">
<path d="M24.667 0.333328H3.33366C1.86299 0.333328 0.666992 1.52933 0.666992 2.99999V19C0.666992 20.4707 1.86299 21.6667 3.33366 21.6667H24.667C26.1377 21.6667 27.3337 20.4707 27.3337 19V2.99999C27.3337 1.52933 26.1377 0.333328 24.667 0.333328ZM24.667 2.99999V3.68133L14.0003 11.9787L3.33366 3.68266V2.99999H24.667ZM3.33366 19V7.05866L13.1817 14.7187C13.4151 14.9021 13.7034 15.0017 14.0003 15.0017C14.2972 15.0017 14.5855 14.9021 14.819 14.7187L24.667 7.05866L24.6697 19H3.33366Z" fill="#086FB4"/>
</svg>
