<svg width="26" height="26" viewBox="0 0 26 26" fill="none" xmlns="http://www.w3.org/2000/svg">
<path d="M19.6095 14.3906C19.4857 14.2667 19.3388 14.1684 19.177 14.1013C19.0153 14.0342 18.8419 13.9997 18.6668 13.9997C18.4917 13.9997 18.3183 14.0342 18.1565 14.1013C17.9948 14.1684 17.8478 14.2667 17.7241 14.3906L15.5988 16.5159C14.6135 16.2226 12.7748 15.5559 11.6095 14.3906C10.4441 13.2253 9.77745 11.3866 9.48412 10.4013L11.6095 8.27594C11.7334 8.15222 11.8317 8.00528 11.8988 7.84353C11.9659 7.68178 12.0004 7.50838 12.0004 7.33327C12.0004 7.15816 11.9659 6.98477 11.8988 6.82301C11.8317 6.66126 11.7334 6.51432 11.6095 6.3906L6.27612 1.05727C6.1524 0.933343 6.00546 0.835026 5.84371 0.767945C5.68196 0.700864 5.50856 0.666336 5.33345 0.666336C5.15834 0.666336 4.98495 0.700864 4.82319 0.767945C4.66144 0.835026 4.5145 0.933343 4.39079 1.05727L0.774786 4.67327C0.26812 5.17994 -0.0172139 5.87594 -0.00654721 6.5866C0.0241195 8.48527 0.526786 15.0799 5.72412 20.2773C10.9215 25.4746 17.5161 25.9759 19.4161 26.0079H19.4535C20.1575 26.0079 20.8228 25.7306 21.3268 25.2266L24.9428 21.6106C25.0667 21.4869 25.165 21.3399 25.2321 21.1782C25.2992 21.0164 25.3337 20.843 25.3337 20.6679C25.3337 20.4928 25.2992 20.3194 25.2321 20.1577C25.165 19.9959 25.0667 19.849 24.9428 19.7253L19.6095 14.3906ZM19.4401 23.3399C17.7761 23.3119 12.0828 22.8653 7.60945 18.3906C3.12145 13.9026 2.68679 8.18927 2.66012 6.5586L5.33345 3.88527L8.78145 7.33327L7.05745 9.05727C6.90073 9.21387 6.78551 9.40705 6.72219 9.61936C6.65887 9.83167 6.64945 10.0564 6.69479 10.2733C6.72679 10.4266 7.50945 14.0626 9.72278 16.2759C11.9361 18.4893 15.5721 19.2719 15.7255 19.3039C15.9422 19.3505 16.1672 19.3419 16.3796 19.2787C16.5921 19.2156 16.7853 19.1 16.9415 18.9426L18.6668 17.2186L22.1148 20.6666L19.4401 23.3399Z" fill="#086FB4"/>
</svg>
