<svg width="20" height="14" viewBox="0 0 20 14" fill="none" xmlns="http://www.w3.org/2000/svg">
<path d="M16.9479 6.112C16.5109 2.67 13.5629 0 10.0039 0C7.24791 0 4.85391 1.611 3.76091 4.15C1.61291 4.792 0.00390625 6.82 0.00390625 9C0.00390625 11.757 2.24691 14 5.00391 14H6.00391V12H5.00391C3.34991 12 2.00391 10.654 2.00391 9C2.00391 7.596 3.20291 6.243 4.67691 5.984L5.25791 5.882L5.44991 5.324C6.15291 3.273 7.89791 2 10.0039 2C12.7609 2 15.0039 4.243 15.0039 7V8H16.0039C17.1069 8 18.0039 8.897 18.0039 10C18.0039 11.103 17.1069 12 16.0039 12H14.0039V14H16.0039C18.2099 14 20.0039 12.206 20.0039 10C20.0027 9.10352 19.701 8.23332 19.147 7.5285C18.593 6.82368 17.8187 6.32494 16.9479 6.112Z" fill="white"/>
<path d="M11.0039 9V5H9.00391V9H6.00391L10.0039 14L14.0039 9H11.0039Z" fill="white"/>
</svg>
