<svg width="28" height="28" viewBox="0 0 28 28" fill="none" xmlns="http://www.w3.org/2000/svg">
<path fill-rule="evenodd" clip-rule="evenodd" d="M27.4712 10.0687V20.8687C27.4712 24.6201 24.4022 27.6891 20.6508 27.6891H4.77513C6.03614 27.6574 7.20677 27.61 8.28247 27.5467C10.357 27.4224 12.0633 27.2348 13.3966 26.9862C16.6147 26.3851 19.2723 25.3591 21.3672 23.9038C23.5186 22.4122 25.0712 20.4823 26.0248 18.1162C26.5469 16.8371 26.9333 15.2281 27.1864 13.2936C27.3152 12.3015 27.4124 11.2258 27.4734 10.0665M21.8847 0.407715H25.2248C25.3085 2.05291 25.3085 4.06195 25.3085 6.06195V6.63596H25.3039C25.3039 9.1015 25.1887 11.2258 24.9582 13.0043C24.7299 14.758 24.3932 16.1817 23.9457 17.2755L23.9412 17.28C23.1548 19.2281 21.8734 20.819 20.0949 22.0552C18.2599 23.3275 15.8938 24.236 12.9966 24.7761C11.7627 25.0066 10.1491 25.1829 8.15592 25.3004C6.1853 25.4179 3.8192 25.4766 1.05761 25.4766C0.768348 25.4766 0.479082 25.4766 0.196596 25.4766V21.8608C2.73897 21.2891 4.91976 20.7422 6.73671 20.2224C8.73445 19.6529 10.3593 19.0992 11.609 18.5636C14.6192 17.28 16.9921 15.7004 18.7232 13.8247C20.4949 11.9038 21.5909 9.68681 22.009 7.17382C22.2395 5.8224 22.2667 4.16591 22.0926 2.2111C22.0407 1.63709 21.9729 1.03596 21.887 0.409975L21.8847 0.407715ZM12.0746 0.407715H19.6181C19.7198 1.10828 19.7989 1.77495 19.8554 2.4032C20.0113 4.15461 19.9909 5.61901 19.7898 6.79416V6.79868C19.4441 8.87325 18.5378 10.706 17.0667 12.2992C15.5548 13.9377 13.4418 15.3365 10.7277 16.4936C9.57739 16.984 8.04066 17.506 6.11976 18.0552C4.40225 18.5456 2.4271 19.0473 0.196596 19.5557V15.549C1.57965 15.4857 2.83388 15.2484 3.95705 14.8394C5.71524 14.1998 7.13671 13.1512 8.22598 11.6936C8.81355 10.9117 9.36722 9.88342 9.88699 8.6111C10.3842 7.39077 10.8587 5.9241 11.3107 4.21336C11.6813 2.80319 11.939 1.5354 12.0791 0.407715H12.0746ZM7.01468 0.407715H9.80564C9.6723 1.36591 9.44857 2.44161 9.13219 3.63935C8.70959 5.24387 8.26439 6.62014 7.7966 7.76591C7.3514 8.85743 6.89264 9.71845 6.42259 10.3399L6.41807 10.3444C5.59547 11.4473 4.51976 12.2405 3.18869 12.7241C2.30733 13.045 1.30846 13.2348 0.194336 13.2936V7.22805C0.194336 3.47664 3.26326 0.407715 7.01468 0.407715Z" fill="#086FB4"/>
<mask id="mask0_10_1405" style="mask-type:luminance" maskUnits="userSpaceOnUse" x="0" y="0" width="28" height="28">
<path d="M27.4674 10.0693V20.8693C27.4674 24.6208 24.3985 27.6897 20.6471 27.6897H4.77134C6.03236 27.658 7.20298 27.6106 8.27869 27.5473C10.3533 27.423 12.0595 27.2354 13.3928 26.9869C16.6109 26.3857 19.2685 25.3597 21.3634 23.9044C23.5148 22.4128 25.0674 20.4829 26.0211 18.1168C26.5431 16.8377 26.9295 15.2287 27.1826 13.2942C27.3115 12.3021 27.4086 11.2264 27.4697 10.0671M21.8809 0.408325H25.2211C25.3047 2.05352 25.3047 4.06256 25.3047 6.06256V6.63657H25.3002C25.3002 9.10211 25.1849 11.2264 24.9544 13.0049C24.7261 14.7586 24.3894 16.1823 23.942 17.2761L23.9374 17.2806C23.151 19.2287 21.8696 20.8196 20.0911 22.0558C18.2561 23.3281 15.89 24.2366 12.9928 24.7767C11.7589 25.0072 10.1454 25.1835 8.15213 25.301C6.18151 25.4185 3.81541 25.4773 1.05383 25.4773C0.764564 25.4773 0.475298 25.4773 0.192812 25.4773V21.8614C2.73518 21.2897 4.91598 20.7428 6.73292 20.223C8.73067 19.6535 10.3555 19.0999 11.6052 18.5643C14.6154 17.2806 16.9883 15.701 18.7194 13.8253C20.4911 11.9044 21.5872 9.68742 22.0052 7.17443C22.2358 5.82301 22.2629 4.16652 22.0889 2.21172C22.0369 1.6377 21.9691 1.03657 21.8832 0.410585L21.8809 0.408325ZM12.0708 0.408325H19.6143C19.716 1.10889 19.7951 1.77556 19.8516 2.40381C20.0075 4.15522 19.9872 5.61962 19.786 6.79477V6.79929C19.4403 8.87386 18.5341 10.7066 17.0629 12.2999C15.551 13.9383 13.438 15.3371 10.7239 16.4942C9.5736 16.9846 8.03688 17.5066 6.11598 18.0558C4.39846 18.5462 2.42332 19.0479 0.192812 19.5563V15.5496C1.57586 15.4863 2.8301 15.249 3.95326 14.84C5.71146 14.2004 7.13293 13.1518 8.22219 11.6942C8.80976 10.9123 9.36343 9.88403 9.88321 8.61172C10.3804 7.39138 10.855 5.92471 11.3069 4.21397C11.6776 2.80381 11.9352 1.53601 12.0753 0.408325H12.0708ZM7.01089 0.408325H9.80185C9.66852 1.36652 9.44479 2.44222 9.1284 3.63996C8.70581 5.24448 8.26061 6.62075 7.79281 7.76652C7.34761 8.85804 6.88886 9.71906 6.4188 10.3405L6.41428 10.345C5.59168 11.4479 4.51598 12.2411 3.1849 12.7247C2.30355 13.0456 1.30468 13.2354 0.190552 13.2942V7.22866C0.190552 3.47725 3.25948 0.408325 7.01089 0.408325Z" fill="white"/>
</mask>
<g mask="url(#mask0_10_1405)">
<path d="M27.4107 0.329102H0.131592V27.6082H27.4107V0.329102Z" fill="#086FB4"/>
</g>
</svg>
