<svg width="20" height="20" viewBox="0 0 20 20" fill="none" xmlns="http://www.w3.org/2000/svg">
<path d="M19.56 0.340008C19.4151 0.239773 19.2464 0.179587 19.0708 0.165539C18.8952 0.15149 18.719 0.18408 18.56 0.260008L1.56001 8.26001C1.38674 8.3425 1.24087 8.4731 1.1398 8.63623C1.03873 8.79936 0.986733 8.98813 0.990014 9.18001C0.993193 9.37176 1.05145 9.55856 1.15783 9.71813C1.26421 9.87771 1.41423 10.0033 1.59001 10.08L7.00001 12.45V19.17L12.84 15L17.6 17.08C17.725 17.1394 17.8616 17.1701 18 17.17C18.1838 17.1688 18.3638 17.1169 18.52 17.02C18.6577 16.9367 18.7732 16.8213 18.8568 16.6838C18.9403 16.5463 18.9895 16.3906 19 16.23L20 1.23001C20.0105 1.05619 19.9754 0.882646 19.8983 0.726547C19.8211 0.570447 19.7045 0.437206 19.56 0.340008ZM17.1 14.68L11.83 12.37L15 6.17001L7.35001 10.42L4.42001 9.13001L17.89 2.79001L17.1 14.68Z" fill="white"/>
</svg>
