<svg width="24" height="24" viewBox="0 0 24 24" fill="none" xmlns="http://www.w3.org/2000/svg">
<path d="M21.593 7.20252C21.4791 6.77992 21.2565 6.39452 20.9474 6.08469C20.6382 5.77485 20.2533 5.55138 19.831 5.43652C18.265 5.00652 12 4.99952 12 4.99952C12 4.99952 5.73599 4.99252 4.16899 5.40352C3.74692 5.52367 3.36282 5.7503 3.05356 6.06165C2.7443 6.37301 2.52028 6.75864 2.40299 7.18152C1.98999 8.74752 1.98599 11.9955 1.98599 11.9955C1.98599 11.9955 1.98199 15.2595 2.39199 16.8095C2.62199 17.6665 3.29699 18.3435 4.15499 18.5745C5.73699 19.0045 11.985 19.0115 11.985 19.0115C11.985 19.0115 18.25 19.0185 19.816 18.6085C20.2385 18.4939 20.6237 18.2709 20.9336 17.9617C21.2436 17.6525 21.4674 17.2678 21.583 16.8455C21.997 15.2805 22 12.0335 22 12.0335C22 12.0335 22.02 8.76852 21.593 7.20252ZM9.99599 15.0045L10.001 9.00452L15.208 12.0095L9.99599 15.0045Z" fill="white"/>
</svg>
